# xmcd
#
# Track frame offsets:
#	150
#	16929
#	45275
#	71101
#	92388
#	118986
#	137912
#	161906
#	182775
#	211744
#	237014
#
# Disc length: 3657 seconds
#
# Revision: 1
# Processed by: cddbd v1.5.2PL0 Copyright (c) Steve Scherf et al.
# Submitted via: audiograbber 1.83.01
#
DISCID=910e470b
DTITLE=Luca Giordano Band - Off The Grid
DYEAR=2015
DGENRE=
TTITLE0=Jumpin Eye
TTITLE1=Curly Hair Woman
TTITLE2=Off The Grid
TTITLE3=When I'll Be Gone
TTITLE4=Since I Met You Baby
TTITLE5=Never Enough
TTITLE6=Cold Valley
TTITLE7=One Way Road
TTITLE8=Pami
TTITLE9=Flyin Back To My Baby
TTITLE10=Don't Ever Leave Me
EXTD=
EXTT0=
EXTT1=
EXTT2=
EXTT3=
EXTT4=
EXTT5=
EXTT6=
EXTT7=
EXTT8=
EXTT9=
EXTT10=
PLAYORDER=
